<?xml version="1.0" standalone="no"?><!DOCTYPE svg PUBLIC "-//W3C//DTD SVG 1.1//EN" "http://www.w3.org/Graphics/SVG/1.1/DTD/svg11.dtd"><svg t="1620214432798" class="icon" viewBox="0 0 1024 1024" version="1.1" xmlns="http://www.w3.org/2000/svg" p-id="1643" id="mx_n_1620214432798" xmlns:xlink="http://www.w3.org/1999/xlink" width="200" height="200"><defs><style type="text/css"></style></defs><path d="M512 967.67c185.88 0 312.72-152 312.72-339.56 0-154.86-19.12-571.78-312.72-571.78S199.28 467 199.28 628.11c0 187.53 126.84 339.56 312.72 339.56z" fill="#BF834F" p-id="1644"></path><path d="M512 975.67c-46.41 0-90.34-9.21-130.58-27.39A302.64 302.64 0 0 1 280 873.55c-57.2-64-88.69-151.13-88.69-245.44 0-107.57 9.36-202.43 27.82-281.95a8 8 0 1 1 15.59 3.62c-18.19 78.33-27.41 172-27.41 278.33 0 90.37 30.05 173.75 84.62 234.77A286.77 286.77 0 0 0 388 933.7c38.15 17.23 79.87 26 124 26 62.45 0 121.2-18 169.9-52.12 46.68-32.69 83.67-79.56 107-135.54a8 8 0 1 1 14.77 6.14c-24.45 58.79-63.37 108.07-112.55 142.51-51.45 35.96-113.37 54.98-179.12 54.98zM812.55 734.2a8.12 8.12 0 0 1-2-0.25 8 8 0 0 1-5.75-9.74 386.46 386.46 0 0 0 11.92-96.1c0-135.91-15.42-250.78-45.84-341.42C721.35 139.14 634.26 64.33 512 64.33 457.66 64.33 409.79 79 369.73 108c-35.32 25.57-65.43 62.81-89.49 110.69a8 8 0 0 1-14.3-7.18C320.36 103.24 403.15 48.33 512 48.33c70.22 0 130.2 23.48 178.28 69.8 40.11 38.65 72.33 93.65 95.77 163.47 31 92.28 46.67 208.86 46.67 346.51a402.19 402.19 0 0 1-12.43 100.08 8 8 0 0 1-7.74 6.01zM239.42 308.93a7.78 7.78 0 0 1-2.32-0.35 8 8 0 0 1-5.34-10c4.37-14.4 9.14-28.39 14.2-41.59a8 8 0 1 1 14.94 5.73c-4.92 12.84-9.57 26.46-13.83 40.5a8 8 0 0 1-7.65 5.71z" fill="#333333" p-id="1645"></path><path d="M388.44 568.89c1.15-17 15.73-30.51 33.56-30.51s32.4 13.47 33.56 30.51zM666.07 565.84c1.16-17 15.74-30.51 33.56-30.51s32.37 13.47 33.56 30.51z" fill="#A56731" p-id="1646"></path><path d="M470.81 462.11m-27.46 0a27.46 27.46 0 1 0 54.92 0 27.46 27.46 0 1 0-54.92 0Z" fill="#333333" p-id="1647"></path><path d="M644.72 462.11m-27.46 0a27.46 27.46 0 1 0 54.92 0 27.46 27.46 0 1 0-54.92 0Z" fill="#333333" p-id="1648"></path></svg>